<?xml version="1.0" standalone="no"?>
 <!DOCTYPE svg PUBLIC "-//W3C//DTD SVG 1.1//EN" 
 "http://www.w3.org/Graphics/SVG/1.1/DTD/svg11.dtd"> 
<svg
  xmlns:svg="http://www.w3.org/2000/svg"
  xmlns="http://www.w3.org/2000/svg"
  xmlns:xlink="http://www.w3.org/1999/xlink"
  version="1.1"
  width="87.9094mm" height="134.4422mm" viewBox="0.0000 0.0000 87.9094 134.4422">
<title>SVG Image created as ProPico-F_Silkscreen.svg date 2023/12/12 20:53:29 </title>
  <desc>Image generated by PCBNEW </desc>
<g style="fill:#000000; fill-opacity:1.0000;stroke:#000000; stroke-opacity:1.0000;
stroke-linecap:round; stroke-linejoin:round;"
 transform="translate(0 0) scale(1 1)">
</g>
<g style="fill:#000000; fill-opacity:0.0; 
stroke:#000000; stroke-width:0.0000; stroke-opacity:1; 
stroke-linecap:round; stroke-linejoin:round;">
</g>
<g style="fill:#000000; fill-opacity:1.0000; 
stroke:#000000; stroke-width:0.0212; stroke-opacity:1; 
stroke-linecap:round; stroke-linejoin:round;">
<rect x="-5.000000" y="-5.000000" width="97.920773" height="144.446000" rx="0.000000" />
</g>
<g style="fill:#FFFFFF; fill-opacity:1.0000; 
stroke:#FFFFFF; stroke-width:0.0212; stroke-opacity:1; 
stroke-linecap:round; stroke-linejoin:round;">
</g>
<g style="fill:#FFFFFF; fill-opacity:1.0000; 
stroke:#FFFFFF; stroke-width:0.1500; stroke-opacity:1; 
stroke-linecap:round; stroke-linejoin:round;">
</g>
<g style="fill:#FFFFFF; fill-opacity:0.0; 
stroke:#FFFFFF; stroke-width:0.1500; stroke-opacity:1; 
stroke-linecap:round; stroke-linejoin:round;">
<text x="35.2552" y="8.3080"
textLength="1.8138" font-size="1.0667" lengthAdjust="spacingAndGlyphs"
text-anchor="start" opacity="0">40</text>
<g class="stroked-text"><desc>40</desc>
<path d="M35.8872 7.6690
L35.8872 8.2023
" />
<path d="M35.6967 7.3642
L35.5063 7.9356
" />
<path d="M35.5063 7.9356
L36.0015 7.9356
" />
<path d="M36.4586 7.4023
L36.5348 7.4023
" />
<path d="M36.5348 7.4023
L36.6110 7.4404
" />
<path d="M36.6110 7.4404
L36.6491 7.4785
" />
<path d="M36.6491 7.4785
L36.6872 7.5547
" />
<path d="M36.6872 7.5547
L36.7253 7.7071
" />
<path d="M36.7253 7.7071
L36.7253 7.8975
" />
<path d="M36.7253 7.8975
L36.6872 8.0499
" />
<path d="M36.6872 8.0499
L36.6491 8.1261
" />
<path d="M36.6491 8.1261
L36.6110 8.1642
" />
<path d="M36.6110 8.1642
L36.5348 8.2023
" />
<path d="M36.5348 8.2023
L36.4586 8.2023
" />
<path d="M36.4586 8.2023
L36.3825 8.1642
" />
<path d="M36.3825 8.1642
L36.3444 8.1261
" />
<path d="M36.3444 8.1261
L36.3063 8.0499
" />
<path d="M36.3063 8.0499
L36.2682 7.8975
" />
<path d="M36.2682 7.8975
L36.2682 7.7071
" />
<path d="M36.2682 7.7071
L36.3063 7.5547
" />
<path d="M36.3063 7.5547
L36.3444 7.4785
" />
<path d="M36.3444 7.4785
L36.3825 7.4404
" />
<path d="M36.3825 7.4404
L36.4586 7.4023
" />
</g><text x="20.7772" y="8.3080"
textLength="1.0519" font-size="1.0667" lengthAdjust="spacingAndGlyphs"
text-anchor="start" opacity="0">1</text>
<g class="stroked-text"><desc>1</desc>
<path d="M21.4854 8.2023
L21.0283 8.2023
" />
<path d="M21.2568 8.2023
L21.2568 7.4023
" />
<path d="M21.2568 7.4023
L21.1806 7.5166
" />
<path d="M21.1806 7.5166
L21.1045 7.5928
" />
<path d="M21.1045 7.5928
L21.0283 7.6309
" />
</g><text x="20.7772" y="10.8480"
textLength="1.0519" font-size="1.0667" lengthAdjust="spacingAndGlyphs"
text-anchor="start" opacity="0">2</text>
<g class="stroked-text"><desc>2</desc>
<path d="M21.0283 10.0185
L21.0664 9.9804
" />
<path d="M21.0664 9.9804
L21.1425 9.9423
" />
<path d="M21.1425 9.9423
L21.3330 9.9423
" />
<path d="M21.3330 9.9423
L21.4092 9.9804
" />
<path d="M21.4092 9.9804
L21.4473 10.0185
" />
<path d="M21.4473 10.0185
L21.4854 10.0947
" />
<path d="M21.4854 10.0947
L21.4854 10.1709
" />
<path d="M21.4854 10.1709
L21.4473 10.2852
" />
<path d="M21.4473 10.2852
L20.9902 10.7423
" />
<path d="M20.9902 10.7423
L21.4854 10.7423
" />
</g><text x="20.7772" y="8.3080"
textLength="1.0519" font-size="1.0667" lengthAdjust="spacingAndGlyphs"
text-anchor="start" opacity="0">1</text>
<g class="stroked-text"><desc>1</desc>
<path d="M21.4854 8.2023
L21.0283 8.2023
" />
<path d="M21.2568 8.2023
L21.2568 7.4023
" />
<path d="M21.2568 7.4023
L21.1806 7.5166
" />
<path d="M21.1806 7.5166
L21.1045 7.5928
" />
<path d="M21.1045 7.5928
L21.0283 7.6309
" />
</g><text x="23.0632" y="55.6610"
textLength="2.4614" font-size="1.0667" lengthAdjust="spacingAndGlyphs"
text-anchor="middle" opacity="0">rev.</text>
<g class="stroked-text"><desc>rev.</desc>
<path d="M22.1680 55.5553
L22.1680 55.0220
" />
<path d="M22.1680 55.1743
L22.2061 55.0982
" />
<path d="M22.2061 55.0982
L22.2442 55.0601
" />
<path d="M22.2442 55.0601
L22.3203 55.0220
" />
<path d="M22.3203 55.0220
L22.3965 55.0220
" />
<path d="M22.9680 55.5172
L22.8918 55.5553
" />
<path d="M22.8918 55.5553
L22.7394 55.5553
" />
<path d="M22.7394 55.5553
L22.6632 55.5172
" />
<path d="M22.6632 55.5172
L22.6251 55.4410
" />
<path d="M22.6251 55.4410
L22.6251 55.1362
" />
<path d="M22.6251 55.1362
L22.6632 55.0601
" />
<path d="M22.6632 55.0601
L22.7394 55.0220
" />
<path d="M22.7394 55.0220
L22.8918 55.0220
" />
<path d="M22.8918 55.0220
L22.9680 55.0601
" />
<path d="M22.9680 55.0601
L23.0061 55.1362
" />
<path d="M23.0061 55.1362
L23.0061 55.2124
" />
<path d="M23.0061 55.2124
L22.6251 55.2886
" />
<path d="M23.2727 55.0220
L23.4632 55.5553
" />
<path d="M23.4632 55.5553
L23.6537 55.0220
" />
<path d="M23.9584 55.4791
L23.9965 55.5172
" />
<path d="M23.9965 55.5172
L23.9584 55.5553
" />
<path d="M23.9584 55.5553
L23.9203 55.5172
" />
<path d="M23.9203 55.5172
L23.9584 55.4791
" />
<path d="M23.9584 55.4791
L23.9584 55.5553
" />
</g><text x="23.0632" y="56.9490"
textLength="2.1948" font-size="1.0667" lengthAdjust="spacingAndGlyphs"
text-anchor="middle" opacity="0">1.0</text>
<g class="stroked-text"><desc>1.0</desc>
<path d="M22.7203 56.8433
L22.2632 56.8433
" />
<path d="M22.4918 56.8433
L22.4918 56.0433
" />
<path d="M22.4918 56.0433
L22.4156 56.1576
" />
<path d="M22.4156 56.1576
L22.3394 56.2338
" />
<path d="M22.3394 56.2338
L22.2632 56.2719
" />
<path d="M23.0632 56.7671
L23.1013 56.8052
" />
<path d="M23.1013 56.8052
L23.0632 56.8433
" />
<path d="M23.0632 56.8433
L23.0251 56.8052
" />
<path d="M23.0251 56.8052
L23.0632 56.7671
" />
<path d="M23.0632 56.7671
L23.0632 56.8433
" />
<path d="M23.5965 56.0433
L23.6727 56.0433
" />
<path d="M23.6727 56.0433
L23.7489 56.0814
" />
<path d="M23.7489 56.0814
L23.7870 56.1195
" />
<path d="M23.7870 56.1195
L23.8251 56.1957
" />
<path d="M23.8251 56.1957
L23.8632 56.3481
" />
<path d="M23.8632 56.3481
L23.8632 56.5385
" />
<path d="M23.8632 56.5385
L23.8251 56.6909
" />
<path d="M23.8251 56.6909
L23.7870 56.7671
" />
<path d="M23.7870 56.7671
L23.7489 56.8052
" />
<path d="M23.7489 56.8052
L23.6727 56.8433
" />
<path d="M23.6727 56.8433
L23.5965 56.8433
" />
<path d="M23.5965 56.8433
L23.5203 56.8052
" />
<path d="M23.5203 56.8052
L23.4822 56.7671
" />
<path d="M23.4822 56.7671
L23.4442 56.6909
" />
<path d="M23.4442 56.6909
L23.4061 56.5385
" />
<path d="M23.4061 56.5385
L23.4061 56.3481
" />
<path d="M23.4061 56.3481
L23.4442 56.1957
" />
<path d="M23.4442 56.1957
L23.4822 56.1195
" />
<path d="M23.4822 56.1195
L23.5203 56.0814
" />
<path d="M23.5203 56.0814
L23.5965 56.0433
" />
</g><text x="22.4282" y="53.6470"
textLength="2.3929" font-size="1.3333" lengthAdjust="spacingAndGlyphs"
text-anchor="start" opacity="0">WP</text>
<g class="stroked-text"><desc>WP</desc>
<path d="M22.6697 52.5168
L22.9078 53.5168
" />
<path d="M22.9078 53.5168
L23.0983 52.8025
" />
<path d="M23.0983 52.8025
L23.2888 53.5168
" />
<path d="M23.2888 53.5168
L23.5269 52.5168
" />
<path d="M23.9078 53.5168
L23.9078 52.5168
" />
<path d="M23.9078 52.5168
L24.2888 52.5168
" />
<path d="M24.2888 52.5168
L24.3840 52.5644
" />
<path d="M24.3840 52.5644
L24.4316 52.6121
" />
<path d="M24.4316 52.6121
L24.4793 52.7073
" />
<path d="M24.4793 52.7073
L24.4793 52.8502
" />
<path d="M24.4793 52.8502
L24.4316 52.9454
" />
<path d="M24.4316 52.9454
L24.3840 52.9930
" />
<path d="M24.3840 52.9930
L24.2888 53.0406
" />
<path d="M24.2888 53.0406
L23.9078 53.0406
" />
</g><g transform="rotate(-90.000000 22.1562 48.0590)">
<text x="22.1562" y="48.0590"
textLength="8.0995" font-size="1.0667" lengthAdjust="spacingAndGlyphs"
text-anchor="middle" opacity="0">PRO PICO by</text>
</g>
<g class="stroked-text"><desc>PRO PICO by</desc>
<path d="M22.0505 51.7733
L21.2505 51.7733
" />
<path d="M21.2505 51.7733
L21.2505 51.4685
" />
<path d="M21.2505 51.4685
L21.2886 51.3923
" />
<path d="M21.2886 51.3923
L21.3267 51.3542
" />
<path d="M21.3267 51.3542
L21.4029 51.3161
" />
<path d="M21.4029 51.3161
L21.5172 51.3161
" />
<path d="M21.5172 51.3161
L21.5934 51.3542
" />
<path d="M21.5934 51.3542
L21.6314 51.3923
" />
<path d="M21.6314 51.3923
L21.6695 51.4685
" />
<path d="M21.6695 51.4685
L21.6695 51.7733
" />
<path d="M22.0505 50.5161
L21.6695 50.7828
" />
<path d="M22.0505 50.9733
L21.2505 50.9733
" />
<path d="M21.2505 50.9733
L21.2505 50.6685
" />
<path d="M21.2505 50.6685
L21.2886 50.5923
" />
<path d="M21.2886 50.5923
L21.3267 50.5542
" />
<path d="M21.3267 50.5542
L21.4029 50.5161
" />
<path d="M21.4029 50.5161
L21.5172 50.5161
" />
<path d="M21.5172 50.5161
L21.5934 50.5542
" />
<path d="M21.5934 50.5542
L21.6314 50.5923
" />
<path d="M21.6314 50.5923
L21.6695 50.6685
" />
<path d="M21.6695 50.6685
L21.6695 50.9733
" />
<path d="M21.2505 50.0209
L21.2505 49.8685
" />
<path d="M21.2505 49.8685
L21.2886 49.7923
" />
<path d="M21.2886 49.7923
L21.3648 49.7161
" />
<path d="M21.3648 49.7161
L21.5172 49.6780
" />
<path d="M21.5172 49.6780
L21.7838 49.6780
" />
<path d="M21.7838 49.6780
L21.9362 49.7161
" />
<path d="M21.9362 49.7161
L22.0124 49.7923
" />
<path d="M22.0124 49.7923
L22.0505 49.8685
" />
<path d="M22.0505 49.8685
L22.0505 50.0209
" />
<path d="M22.0505 50.0209
L22.0124 50.0971
" />
<path d="M22.0124 50.0971
L21.9362 50.1733
" />
<path d="M21.9362 50.1733
L21.7838 50.2114
" />
<path d="M21.7838 50.2114
L21.5172 50.2114
" />
<path d="M21.5172 50.2114
L21.3648 50.1733
" />
<path d="M21.3648 50.1733
L21.2886 50.0971
" />
<path d="M21.2886 50.0971
L21.2505 50.0209
" />
<path d="M22.0505 48.7257
L21.2505 48.7257
" />
<path d="M21.2505 48.7257
L21.2505 48.4209
" />
<path d="M21.2505 48.4209
L21.2886 48.3447
" />
<path d="M21.2886 48.3447
L21.3267 48.3066
" />
<path d="M21.3267 48.3066
L21.4029 48.2685
" />
<path d="M21.4029 48.2685
L21.5172 48.2685
" />
<path d="M21.5172 48.2685
L21.5934 48.3066
" />
<path d="M21.5934 48.3066
L21.6314 48.3447
" />
<path d="M21.6314 48.3447
L21.6695 48.4209
" />
<path d="M21.6695 48.4209
L21.6695 48.7257
" />
<path d="M22.0505 47.9257
L21.2505 47.9257
" />
<path d="M21.9743 47.0876
L22.0124 47.1257
" />
<path d="M22.0124 47.1257
L22.0505 47.2400
" />
<path d="M22.0505 47.2400
L22.0505 47.3161
" />
<path d="M22.0505 47.3161
L22.0124 47.4304
" />
<path d="M22.0124 47.4304
L21.9362 47.5066
" />
<path d="M21.9362 47.5066
L21.8600 47.5447
" />
<path d="M21.8600 47.5447
L21.7076 47.5828
" />
<path d="M21.7076 47.5828
L21.5934 47.5828
" />
<path d="M21.5934 47.5828
L21.4410 47.5447
" />
<path d="M21.4410 47.5447
L21.3648 47.5066
" />
<path d="M21.3648 47.5066
L21.2886 47.4304
" />
<path d="M21.2886 47.4304
L21.2505 47.3161
" />
<path d="M21.2505 47.3161
L21.2505 47.2400
" />
<path d="M21.2505 47.2400
L21.2886 47.1257
" />
<path d="M21.2886 47.1257
L21.3267 47.0876
" />
<path d="M21.2505 46.5923
L21.2505 46.4400
" />
<path d="M21.2505 46.4400
L21.2886 46.3638
" />
<path d="M21.2886 46.3638
L21.3648 46.2876
" />
<path d="M21.3648 46.2876
L21.5172 46.2495
" />
<path d="M21.5172 46.2495
L21.7838 46.2495
" />
<path d="M21.7838 46.2495
L21.9362 46.2876
" />
<path d="M21.9362 46.2876
L22.0124 46.3638
" />
<path d="M22.0124 46.3638
L22.0505 46.4400
" />
<path d="M22.0505 46.4400
L22.0505 46.5923
" />
<path d="M22.0505 46.5923
L22.0124 46.6685
" />
<path d="M22.0124 46.6685
L21.9362 46.7447
" />
<path d="M21.9362 46.7447
L21.7838 46.7828
" />
<path d="M21.7838 46.7828
L21.5172 46.7828
" />
<path d="M21.5172 46.7828
L21.3648 46.7447
" />
<path d="M21.3648 46.7447
L21.2886 46.6685
" />
<path d="M21.2886 46.6685
L21.2505 46.5923
" />
<path d="M22.0505 45.2971
L21.2505 45.2971
" />
<path d="M21.5553 45.2971
L21.5172 45.2209
" />
<path d="M21.5172 45.2209
L21.5172 45.0685
" />
<path d="M21.5172 45.0685
L21.5553 44.9923
" />
<path d="M21.5553 44.9923
L21.5934 44.9542
" />
<path d="M21.5934 44.9542
L21.6695 44.9161
" />
<path d="M21.6695 44.9161
L21.8981 44.9161
" />
<path d="M21.8981 44.9161
L21.9743 44.9542
" />
<path d="M21.9743 44.9542
L22.0124 44.9923
" />
<path d="M22.0124 44.9923
L22.0505 45.0685
" />
<path d="M22.0505 45.0685
L22.0505 45.2209
" />
<path d="M22.0505 45.2209
L22.0124 45.2971
" />
<path d="M21.5172 44.6495
L22.0505 44.4590
" />
<path d="M21.5172 44.2685
L22.0505 44.4590
" />
<path d="M22.0505 44.4590
L22.2410 44.5352
" />
<path d="M22.2410 44.5352
L22.2791 44.5733
" />
<path d="M22.2791 44.5733
L22.3172 44.6495
" />
</g><g transform="rotate(-90.000000 23.4442 48.0590)">
<text x="23.4442" y="48.0590"
textLength="5.8138" font-size="1.0667" lengthAdjust="spacingAndGlyphs"
text-anchor="middle" opacity="0">diminDDL</text>
</g>
<g class="stroked-text"><desc>diminDDL</desc>
<path d="M23.3385 50.2876
L22.5385 50.2876
" />
<path d="M23.3004 50.2876
L23.3385 50.3638
" />
<path d="M23.3385 50.3638
L23.3385 50.5161
" />
<path d="M23.3385 50.5161
L23.3004 50.5923
" />
<path d="M23.3004 50.5923
L23.2623 50.6304
" />
<path d="M23.2623 50.6304
L23.1861 50.6685
" />
<path d="M23.1861 50.6685
L22.9575 50.6685
" />
<path d="M22.9575 50.6685
L22.8814 50.6304
" />
<path d="M22.8814 50.6304
L22.8433 50.5923
" />
<path d="M22.8433 50.5923
L22.8052 50.5161
" />
<path d="M22.8052 50.5161
L22.8052 50.3638
" />
<path d="M22.8052 50.3638
L22.8433 50.2876
" />
<path d="M23.3385 49.9066
L22.8052 49.9066
" />
<path d="M22.5385 49.9066
L22.5766 49.9447
" />
<path d="M22.5766 49.9447
L22.6147 49.9066
" />
<path d="M22.6147 49.9066
L22.5766 49.8685
" />
<path d="M22.5766 49.8685
L22.5385 49.9066
" />
<path d="M22.5385 49.9066
L22.6147 49.9066
" />
<path d="M23.3385 49.5257
L22.8052 49.5257
" />
<path d="M22.8814 49.5257
L22.8433 49.4876
" />
<path d="M22.8433 49.4876
L22.8052 49.4114
" />
<path d="M22.8052 49.4114
L22.8052 49.2971
" />
<path d="M22.8052 49.2971
L22.8433 49.2209
" />
<path d="M22.8433 49.2209
L22.9194 49.1828
" />
<path d="M22.9194 49.1828
L23.3385 49.1828
" />
<path d="M22.9194 49.1828
L22.8433 49.1447
" />
<path d="M22.8433 49.1447
L22.8052 49.0685
" />
<path d="M22.8052 49.0685
L22.8052 48.9542
" />
<path d="M22.8052 48.9542
L22.8433 48.8780
" />
<path d="M22.8433 48.8780
L22.9194 48.8400
" />
<path d="M22.9194 48.8400
L23.3385 48.8400
" />
<path d="M23.3385 48.4590
L22.8052 48.4590
" />
<path d="M22.5385 48.4590
L22.5766 48.4971
" />
<path d="M22.5766 48.4971
L22.6147 48.4590
" />
<path d="M22.6147 48.4590
L22.5766 48.4209
" />
<path d="M22.5766 48.4209
L22.5385 48.4590
" />
<path d="M22.5385 48.4590
L22.6147 48.4590
" />
<path d="M22.8052 48.0780
L23.3385 48.0780
" />
<path d="M22.8814 48.0780
L22.8433 48.0400
" />
<path d="M22.8433 48.0400
L22.8052 47.9638
" />
<path d="M22.8052 47.9638
L22.8052 47.8495
" />
<path d="M22.8052 47.8495
L22.8433 47.7733
" />
<path d="M22.8433 47.7733
L22.9194 47.7352
" />
<path d="M22.9194 47.7352
L23.3385 47.7352
" />
<path d="M23.3385 47.3542
L22.5385 47.3542
" />
<path d="M22.5385 47.3542
L22.5385 47.1638
" />
<path d="M22.5385 47.1638
L22.5766 47.0495
" />
<path d="M22.5766 47.0495
L22.6528 46.9733
" />
<path d="M22.6528 46.9733
L22.7290 46.9352
" />
<path d="M22.7290 46.9352
L22.8814 46.8971
" />
<path d="M22.8814 46.8971
L22.9956 46.8971
" />
<path d="M22.9956 46.8971
L23.1480 46.9352
" />
<path d="M23.1480 46.9352
L23.2242 46.9733
" />
<path d="M23.2242 46.9733
L23.3004 47.0495
" />
<path d="M23.3004 47.0495
L23.3385 47.1638
" />
<path d="M23.3385 47.1638
L23.3385 47.3542
" />
<path d="M23.3385 46.5542
L22.5385 46.5542
" />
<path d="M22.5385 46.5542
L22.5385 46.3638
" />
<path d="M22.5385 46.3638
L22.5766 46.2495
" />
<path d="M22.5766 46.2495
L22.6528 46.1733
" />
<path d="M22.6528 46.1733
L22.7290 46.1352
" />
<path d="M22.7290 46.1352
L22.8814 46.0971
" />
<path d="M22.8814 46.0971
L22.9956 46.0971
" />
<path d="M22.9956 46.0971
L23.1480 46.1352
" />
<path d="M23.1480 46.1352
L23.2242 46.1733
" />
<path d="M23.2242 46.1733
L23.3004 46.2495
" />
<path d="M23.3004 46.2495
L23.3385 46.3638
" />
<path d="M23.3385 46.3638
L23.3385 46.5542
" />
<path d="M23.3385 45.3733
L23.3385 45.7542
" />
<path d="M23.3385 45.7542
L22.5385 45.7542
" />
</g><g transform="rotate(-90.000000 22.3012 21.1350)">
<text x="22.3012" y="21.1350"
textLength="5.5090" font-size="1.0667" lengthAdjust="spacingAndGlyphs"
text-anchor="start" opacity="0">BOOTSEL</text>
</g>
<g class="stroked-text"><desc>BOOTSEL</desc>
<path d="M21.7764 20.5792
L21.8145 20.4649
" />
<path d="M21.8145 20.4649
L21.8526 20.4268
" />
<path d="M21.8526 20.4268
L21.9288 20.3887
" />
<path d="M21.9288 20.3887
L22.0431 20.3887
" />
<path d="M22.0431 20.3887
L22.1193 20.4268
" />
<path d="M22.1193 20.4268
L22.1574 20.4649
" />
<path d="M22.1574 20.4649
L22.1955 20.5411
" />
<path d="M22.1955 20.5411
L22.1955 20.8458
" />
<path d="M22.1955 20.8458
L21.3955 20.8458
" />
<path d="M21.3955 20.8458
L21.3955 20.5792
" />
<path d="M21.3955 20.5792
L21.4336 20.5030
" />
<path d="M21.4336 20.5030
L21.4717 20.4649
" />
<path d="M21.4717 20.4649
L21.5479 20.4268
" />
<path d="M21.5479 20.4268
L21.6241 20.4268
" />
<path d="M21.6241 20.4268
L21.7003 20.4649
" />
<path d="M21.7003 20.4649
L21.7384 20.5030
" />
<path d="M21.7384 20.5030
L21.7764 20.5792
" />
<path d="M21.7764 20.5792
L21.7764 20.8458
" />
<path d="M21.3955 19.8935
L21.3955 19.7411
" />
<path d="M21.3955 19.7411
L21.4336 19.6649
" />
<path d="M21.4336 19.6649
L21.5098 19.5887
" />
<path d="M21.5098 19.5887
L21.6622 19.5506
" />
<path d="M21.6622 19.5506
L21.9288 19.5506
" />
<path d="M21.9288 19.5506
L22.0812 19.5887
" />
<path d="M22.0812 19.5887
L22.1574 19.6649
" />
<path d="M22.1574 19.6649
L22.1955 19.7411
" />
<path d="M22.1955 19.7411
L22.1955 19.8935
" />
<path d="M22.1955 19.8935
L22.1574 19.9696
" />
<path d="M22.1574 19.9696
L22.0812 20.0458
" />
<path d="M22.0812 20.0458
L21.9288 20.0839
" />
<path d="M21.9288 20.0839
L21.6622 20.0839
" />
<path d="M21.6622 20.0839
L21.5098 20.0458
" />
<path d="M21.5098 20.0458
L21.4336 19.9696
" />
<path d="M21.4336 19.9696
L21.3955 19.8935
" />
<path d="M21.3955 19.0554
L21.3955 18.9030
" />
<path d="M21.3955 18.9030
L21.4336 18.8268
" />
<path d="M21.4336 18.8268
L21.5098 18.7506
" />
<path d="M21.5098 18.7506
L21.6622 18.7125
" />
<path d="M21.6622 18.7125
L21.9288 18.7125
" />
<path d="M21.9288 18.7125
L22.0812 18.7506
" />
<path d="M22.0812 18.7506
L22.1574 18.8268
" />
<path d="M22.1574 18.8268
L22.1955 18.9030
" />
<path d="M22.1955 18.9030
L22.1955 19.0554
" />
<path d="M22.1955 19.0554
L22.1574 19.1316
" />
<path d="M22.1574 19.1316
L22.0812 19.2077
" />
<path d="M22.0812 19.2077
L21.9288 19.2458
" />
<path d="M21.9288 19.2458
L21.6622 19.2458
" />
<path d="M21.6622 19.2458
L21.5098 19.2077
" />
<path d="M21.5098 19.2077
L21.4336 19.1316
" />
<path d="M21.4336 19.1316
L21.3955 19.0554
" />
<path d="M21.3955 18.4839
L21.3955 18.0268
" />
<path d="M22.1955 18.2554
L21.3955 18.2554
" />
<path d="M22.1574 17.7982
L22.1955 17.6839
" />
<path d="M22.1955 17.6839
L22.1955 17.4935
" />
<path d="M22.1955 17.4935
L22.1574 17.4173
" />
<path d="M22.1574 17.4173
L22.1193 17.3792
" />
<path d="M22.1193 17.3792
L22.0431 17.3411
" />
<path d="M22.0431 17.3411
L21.9669 17.3411
" />
<path d="M21.9669 17.3411
L21.8907 17.3792
" />
<path d="M21.8907 17.3792
L21.8526 17.4173
" />
<path d="M21.8526 17.4173
L21.8145 17.4935
" />
<path d="M21.8145 17.4935
L21.7764 17.6458
" />
<path d="M21.7764 17.6458
L21.7384 17.7220
" />
<path d="M21.7384 17.7220
L21.7003 17.7601
" />
<path d="M21.7003 17.7601
L21.6241 17.7982
" />
<path d="M21.6241 17.7982
L21.5479 17.7982
" />
<path d="M21.5479 17.7982
L21.4717 17.7601
" />
<path d="M21.4717 17.7601
L21.4336 17.7220
" />
<path d="M21.4336 17.7220
L21.3955 17.6458
" />
<path d="M21.3955 17.6458
L21.3955 17.4554
" />
<path d="M21.3955 17.4554
L21.4336 17.3411
" />
<path d="M21.7764 16.9982
L21.7764 16.7316
" />
<path d="M22.1955 16.6173
L22.1955 16.9982
" />
<path d="M22.1955 16.9982
L21.3955 16.9982
" />
<path d="M21.3955 16.9982
L21.3955 16.6173
" />
<path d="M22.1955 15.8935
L22.1955 16.2744
" />
<path d="M22.1955 16.2744
L21.3955 16.2744
" />
</g><text x="32.0802" y="53.7740"
textLength="3.3452" font-size="1.3333" lengthAdjust="spacingAndGlyphs"
text-anchor="start" opacity="0">RUN</text>
<g class="stroked-text"><desc>RUN</desc>
<path d="M32.9884 53.6438
L32.6551 53.1676
" />
<path d="M32.4170 53.6438
L32.4170 52.6438
" />
<path d="M32.4170 52.6438
L32.7979 52.6438
" />
<path d="M32.7979 52.6438
L32.8932 52.6914
" />
<path d="M32.8932 52.6914
L32.9408 52.7391
" />
<path d="M32.9408 52.7391
L32.9884 52.8343
" />
<path d="M32.9884 52.8343
L32.9884 52.9772
" />
<path d="M32.9884 52.9772
L32.9408 53.0724
" />
<path d="M32.9408 53.0724
L32.8932 53.1200
" />
<path d="M32.8932 53.1200
L32.7979 53.1676
" />
<path d="M32.7979 53.1676
L32.4170 53.1676
" />
<path d="M33.4170 52.6438
L33.4170 53.4533
" />
<path d="M33.4170 53.4533
L33.4646 53.5486
" />
<path d="M33.4646 53.5486
L33.5122 53.5962
" />
<path d="M33.5122 53.5962
L33.6075 53.6438
" />
<path d="M33.6075 53.6438
L33.7979 53.6438
" />
<path d="M33.7979 53.6438
L33.8932 53.5962
" />
<path d="M33.8932 53.5962
L33.9408 53.5486
" />
<path d="M33.9408 53.5486
L33.9884 53.4533
" />
<path d="M33.9884 53.4533
L33.9884 52.6438
" />
<path d="M34.4646 53.6438
L34.4646 52.6438
" />
<path d="M34.4646 52.6438
L35.0360 53.6438
" />
<path d="M35.0360 53.6438
L35.0360 52.6438
" />
</g><g transform="rotate(90.000000 35.0012 40.5660)">
<text x="35.0012" y="40.5660"
textLength="3.8690" font-size="1.3333" lengthAdjust="spacingAndGlyphs"
text-anchor="start" opacity="0">VREF</text>
</g>
<g class="stroked-text"><desc>VREF</desc>
<path d="M36.1314 40.7599
L35.1314 41.0933
" />
<path d="M35.1314 41.0933
L36.1314 41.4266
" />
<path d="M35.1314 42.3314
L35.6076 41.9980
" />
<path d="M35.1314 41.7599
L36.1314 41.7599
" />
<path d="M36.1314 41.7599
L36.1314 42.1409
" />
<path d="M36.1314 42.1409
L36.0838 42.2361
" />
<path d="M36.0838 42.2361
L36.0361 42.2837
" />
<path d="M36.0361 42.2837
L35.9409 42.3314
" />
<path d="M35.9409 42.3314
L35.7980 42.3314
" />
<path d="M35.7980 42.3314
L35.7028 42.2837
" />
<path d="M35.7028 42.2837
L35.6552 42.2361
" />
<path d="M35.6552 42.2361
L35.6076 42.1409
" />
<path d="M35.6076 42.1409
L35.6076 41.7599
" />
<path d="M35.6552 42.7599
L35.6552 43.0933
" />
<path d="M35.1314 43.2361
L35.1314 42.7599
" />
<path d="M35.1314 42.7599
L36.1314 42.7599
" />
<path d="M36.1314 42.7599
L36.1314 43.2361
" />
<path d="M35.6552 43.9980
L35.6552 43.6647
" />
<path d="M35.1314 43.6647
L36.1314 43.6647
" />
<path d="M36.1314 43.6647
L36.1314 44.1409
" />
</g></g>
<g style="fill:#FFFFFF; fill-opacity:0.0; 
stroke:#FFFFFF; stroke-width:0.1270; stroke-opacity:1; 
stroke-linecap:round; stroke-linejoin:round;">
<path d="M22.1902 26.8450
L22.1902 26.6850
" />
<path d="M24.1902 26.8450
L24.1902 26.6850
" />
<path d="M22.1902 25.5850
L22.1902 25.7450
" />
<path d="M24.1902 25.5850
L24.1902 25.7450
" />
</g>
<g style="fill:#FFFFFF; fill-opacity:0.0; 
stroke:#FFFFFF; stroke-width:0.2000; stroke-opacity:1; 
stroke-linecap:round; stroke-linejoin:round;">
<circle cx="22.0472" cy="27.8660" r="0.1000" /> 
</g>
<g style="fill:#FFFFFF; fill-opacity:0.0; 
stroke:#FFFFFF; stroke-width:0.1200; stroke-opacity:1; 
stroke-linecap:round; stroke-linejoin:round;">
<path d="M22.3278 13.6410
L22.0206 13.6410
" />
<path d="M22.3278 12.8810
L22.0206 12.8810
" />
<path d="M22.5522 19.8640
L22.5522 16.5640
" />
<path d="M22.8522 19.8640
L22.5522 19.8640
" />
<path d="M25.0522 19.8640
L25.3522 19.8640
" />
<path d="M25.3522 19.8640
L25.3522 16.5640
" />
<path d="M22.5522 16.5640
L22.8522 16.5640
" />
<path d="M25.3522 16.5640
L25.0522 16.5640
" />
<path d="M33.2188 25.7894
L33.2188 25.5738
" />
<path d="M33.9388 25.7894
L33.9388 25.5738
" />
<path d="M34.5125 15.4220
L34.2199 15.4220
" />
<path d="M34.5125 14.4020
L34.2199 14.4020
" />
<path d="M24.4392 43.8872
L24.4392 44.1028
" />
<path d="M23.7192 43.8872
L23.7192 44.1028
" />
<path d="M25.1984 35.5400
L25.1984 34.8900
" />
<path d="M25.8484 28.3200
L25.1984 28.3200
" />
<path d="M25.8484 35.5400
L25.1984 35.5400
" />
<path d="M31.7684 28.3200
L32.4184 28.3200
" />
<path d="M31.7684 35.5400
L32.4184 35.5400
" />
<path d="M32.4184 28.3200
L32.4184 28.9700
" />
<path d="M32.4184 35.5400
L32.4184 34.8900
" />
<path d="M29.1802 26.3228
L29.1802 26.1072
" />
<path d="M29.9002 26.3228
L29.9002 26.1072
" />
<path d="M27.5348 39.6760
L27.2276 39.6760
" />
<path d="M27.5348 38.9160
L27.2276 38.9160
" />
<path d="M26.0248 15.5460
L25.6896 15.5460
" />
<path d="M26.0248 14.7860
L25.6896 14.7860
" />
<path d="M34.8934 29.1570
L35.1090 29.1570
" />
<path d="M34.8934 29.8770
L35.1090 29.8770
" />
<path d="M24.8282 52.1390
L30.3282 52.1390
" />
<path d="M24.8282 54.0890
L24.8282 52.1390
" />
<path d="M25.8782 54.6390
L26.4782 54.6390
" />
<path d="M26.1782 54.3390
L25.8782 54.6390
" />
<path d="M26.4782 54.6390
L26.1782 54.3390
" />
<path d="M30.3282 52.1390
L30.3282 54.0890
" />
<path d="M30.3282 54.0890
L24.8282 54.0890
" />
<path d="M25.9730 44.1010
L25.7414 44.1010
" />
<path d="M25.9730 43.3810
L25.7414 43.3810
" />
<path d="M28.3762 40.7122
L28.3762 40.9278
" />
<path d="M27.6562 40.7122
L27.6562 40.9278
" />
<path d="M34.2752 23.0070
L28.2652 23.0070
" />
<path d="M32.0252 16.1870
L28.2652 16.1870
" />
<path d="M28.2652 23.0070
L28.2652 21.7470
" />
<path d="M28.2652 16.1870
L28.2652 17.4470
" />
<path d="M27.8626 43.3610
L28.1698 43.3610
" />
<path d="M27.8626 44.1210
L28.1698 44.1210
" />
<path d="M22.0482 8.2076
L22.0482 7.9004
" />
<path d="M22.8082 8.2076
L22.8082 7.9004
" />
<path d="M25.3292 48.0590
L25.3292 51.5090
" />
<path d="M25.3292 48.0590
L25.3292 46.1090
" />
<path d="M30.4492 48.0590
L30.4492 50.0090
" />
<path d="M30.4492 48.0590
L30.4492 46.1090
" />
<path d="M29.2652 38.0452
L29.2652 38.2608
" />
<path d="M28.5452 38.0452
L28.5452 38.2608
" />
<path d="M35.1089 26.8480
L35.4015 26.8480
" />
<path d="M35.1089 27.8680
L35.4015 27.8680
" />
<path d="M21.9010 34.9570
L21.6854 34.9570
" />
<path d="M21.9010 34.2370
L21.6854 34.2370
" />
<path d="M28.3706 42.3450
L28.6778 42.3450
" />
<path d="M28.3706 43.1050
L28.6778 43.1050
" />
<path d="M31.9268 25.5280
L31.9268 25.8352
" />
<path d="M31.1668 25.5280
L31.1668 25.8352
" />
<path d="M34.9802 35.2512
L34.9802 35.4668
" />
<path d="M34.2602 35.2512
L34.2602 35.4668
" />
<path d="M34.3822 13.8430
L36.3822 13.8430
" />
<path d="M34.3822 13.8430
L34.3822 9.8330
" />
<path d="M36.3822 13.8430
L36.3822 9.8330
" />
<path d="M27.3802 42.8550
L27.3802 40.0550
" />
<path d="M27.3802 40.0550
L24.0802 40.0550
" />
<path d="M34.8758 20.8795
L34.8758 20.4253
" />
<path d="M36.3458 20.8795
L36.3458 20.4253
" />
<path d="M21.2762 14.1770
L21.2762 15.6470
" />
<path d="M21.0322 25.2396
L21.0322 24.9044
" />
<path d="M21.7922 25.2396
L21.7922 24.9044
" />
<path d="M33.2736 10.9570
L33.2736 9.1570
" />
<path d="M33.2736 5.4470
L33.2736 6.9070
" />
<path d="M24.3336 10.9570
L24.3336 9.1570
" />
<path d="M24.3336 5.4470
L33.2736 5.4470
" />
<path d="M24.3336 5.4470
L24.3336 6.9070
" />
<path d="M21.0522 27.3388
L21.0522 27.1232
" />
<path d="M21.7722 27.3388
L21.7722 27.1232
" />
<path d="M31.0236 14.7860
L31.3588 14.7860
" />
<path d="M31.0236 15.5460
L31.3588 15.5460
" />
<path d="M34.2752 46.9530
L34.2752 45.2780
" />
<path d="M34.2752 46.9530
L34.2752 47.6030
" />
<path d="M31.1552 46.9530
L31.1552 46.3030
" />
<path d="M31.1552 46.9530
L31.1552 47.6030
" />
<path d="M24.0386 22.2790
L24.3738 22.2790
" />
<path d="M24.0386 23.0390
L24.3738 23.0390
" />
<path d="M31.8272 49.3260
L35.1272 49.3260
" />
<path d="M31.8272 49.6260
L31.8272 49.3260
" />
<path d="M31.8272 51.8260
L31.8272 52.1260
" />
<path d="M31.8272 52.1260
L35.1272 52.1260
" />
<path d="M35.1272 49.3260
L35.1272 49.6260
" />
<path d="M35.1272 52.1260
L35.1272 51.8260
" />
<path d="M30.2812 38.0452
L30.2812 38.2608
" />
<path d="M29.5612 38.0452
L29.5612 38.2608
" />
<path d="M36.3458 24.2011
L36.3458 24.7237
" />
<path d="M34.8758 24.2011
L34.8758 24.7237
" />
<path d="M35.9047 46.8253
L35.9047 47.3347
" />
<path d="M34.8597 46.8253
L34.8597 47.3347
" />
<path d="M30.9108 25.5280
L30.9108 25.8352
" />
<path d="M30.1508 25.5280
L30.1508 25.8352
" />
<path d="M27.9649 25.2758
L27.8124 25.1233
" />
<path d="M28.4740 24.7667
L28.3215 24.6142
" />
<path d="M32.2028 25.7894
L32.2028 25.5738
" />
<path d="M32.9228 25.7894
L32.9228 25.5738
" />
<path d="M27.2445 25.9524
L27.0920 25.7999
" />
<path d="M27.7536 25.4433
L27.6011 25.2908
" />
<path d="M34.6042 40.9810
L34.6042 43.7810
" />
<path d="M32.6042 40.9810
L34.6042 40.9810
" />
<path d="M34.6042 43.7810
L32.6042 43.7810
" />
<path d="M32.6042 43.7810
L32.6042 40.9810
" />
<path d="M23.1632 9.1880
L21.6932 9.1880
" />
<path d="M22.0682 23.1558
L22.0682 22.9242
" />
<path d="M22.7882 23.1558
L22.7882 22.9242
" />
<g >
</g>
<g >
</g>
<g >
</g>
<g >
</g>
<g >
</g>
<g >
</g>
<g >
</g>
<g >
</g>
<g >
</g>
<g >
</g>
<g >
</g>
<g >
</g>
<g >
</g>
<g >
</g>
<g >
</g>
<g >
</g>
<g >
</g>
<g >
</g>
<g >
</g>
<g >
</g>
<g >
</g>
<g >
</g>
<g >
</g>
<g >
</g>
<g >
</g>
<g >
</g>
<g >
</g>
<g >
</g>
<g >
</g>
<g >
</g>
<g >
</g>
<g >
</g>
<g >
</g>
<g >
</g>
<g >
</g>
<g >
</g>
<g >
</g>
<g >
</g>
<g >
</g>
<g >
</g>
<g >
</g>
<g >
</g>
<g >
</g>
<g >
</g>
<g >
</g>
<g >
</g>
<g >
</g>
<g >
</g>
<g >
</g>
<g >
</g>
<g >
</g>
<g >
</g>
<g >
</g>
<g >
</g>
<g >
</g>
<g >
</g>
<g >
</g>
<g >
</g>
<g >
</g>
</g>
<g style="fill:#FFFFFF; fill-opacity:0.0; 
stroke:#FFFFFF; stroke-width:0.1200; stroke-opacity:1; 
stroke-linecap:round; stroke-linejoin:round;">
</g>
<g style="fill:#FFFFFF; fill-opacity:0.0; 
stroke:#FFFFFF; stroke-width:0.1000; stroke-opacity:1; 
stroke-linecap:round; stroke-linejoin:round;">
<path style="fill:#FFFFFF; fill-opacity:0.0; 
stroke:#FFFFFF; stroke-width:0.1000; stroke-opacity:1; 
stroke-linecap:round; stroke-linejoin:round;fill:none"
d="M 18.3642,6.4300
39.3642,6.4300
39.3642,57.4300
18.3642,57.4300
Z" /> 
<g >
</g>
<g >
</g>
<g >
</g>
<g >
</g>
<g >
</g>
<g >
</g>
<g >
</g>
<g >
</g>
<g >
</g>
<g >
</g>
<g >
</g>
<g >
</g>
<g >
</g>
<g >
</g>
<g >
</g>
<g >
</g>
<g >
</g>
<g >
</g>
<g >
</g>
<g >
</g>
<g >
</g>
<g >
</g>
<g >
</g>
<g >
</g>
<g >
</g>
<g >
</g>
<g >
</g>
<g >
</g>
<g >
</g>
<g >
</g>
<g >
</g>
<g >
</g>
<g >
</g>
<g >
</g>
<g >
</g>
<g >
</g>
<g >
</g>
<g >
</g>
<g >
</g>
<g >
</g>
<g >
</g>
<g >
</g>
<g >
</g>
<g >
</g>
<g >
</g>
<g >
</g>
<g >
</g>
<g >
</g>
<g >
</g>
<g >
</g>
<g >
</g>
<g >
</g>
<g >
</g>
<g >
</g>
<g >
</g>
<g >
</g>
<g >
</g>
<g >
</g>
<g >
</g>
</g> 
</svg>
